<?xml version="1.0" encoding="iso-8859-1"?>
<!-- Generator: Adobe Illustrator 16.0.0, SVG Export Plug-In . SVG Version: 6.00 Build 0)  -->
<!DOCTYPE svg PUBLIC "-//W3C//DTD SVG 1.1//EN" "http://www.w3.org/Graphics/SVG/1.1/DTD/svg11.dtd">
<svg version="1.1" xmlns="http://www.w3.org/2000/svg" xmlns:xlink="http://www.w3.org/1999/xlink" x="0px" y="0px"
	 width="29.105px" height="29.106px" viewBox="0 0 29.105 29.106" style="enable-background:new 0 0 29.105 29.106;"
	 xml:space="preserve">
<g id="c151_half_moon">
	<path style="fill:#000000;" d="M29.105,14.551c0-0.03-0.004-0.059-0.004-0.09C29.053,6.467,22.559,0,14.551,0
		C6.545,0,0.05,6.471,0.001,14.468C0.001,14.497,0,14.522,0,14.551l0,0l0,0c0,8.039,6.517,14.556,14.551,14.556
		C22.589,29.106,29.105,22.59,29.105,14.551L29.105,14.551L29.105,14.551z M2.077,14.551c0-6.875,5.597-12.472,12.474-12.472v24.949
		C7.674,27.028,2.077,21.431,2.077,14.551z"/>
</g>
<g id="Capa_1">
</g>
</svg>
